<svg xmlns="http://www.w3.org/2000/svg" viewBox="0 0 196 34.9">
  <defs>
    <style>
      .cls-1 {
        fill: #1b1f24;
      }

      .cls-2 {
        fill: #ef3737;
      }
    </style>
  </defs>
  <g id="Group_525" data-name="Group 525" transform="translate(-63 -110)">
    <g id="Group_523" data-name="Group 523" transform="translate(63 110)">
      <path id="Path_79" data-name="Path 79" class="cls-1" d="M419.439,52.354h-7.047a5.888,5.888,0,0,1-3.149-1.05,6.232,6.232,0,0,1-2.7-3.824,6.461,6.461,0,0,1,1.5-5.885,6.73,6.73,0,0,1,4.873-2.062h6.6a2,2,0,0,0,2.062-2.1,2.121,2.121,0,0,0-2.062-2.137h-6.56a10.714,10.714,0,0,0-7.572,3,10.131,10.131,0,0,0-3.224,7.91,10.433,10.433,0,0,0,3.6,7.61,10.766,10.766,0,0,0,6.523,2.624H419.4a1.988,1.988,0,0,0,2.062-2.062A2.016,2.016,0,0,0,419.439,52.354Z" transform="translate(-251.372 -22.065)"/>
      <path id="Path_80" data-name="Path 80" class="cls-1" d="M304.127,30.214h-7.31a6.315,6.315,0,0,1-5.81-4.836,6.461,6.461,0,0,1,1.5-5.885,6.73,6.73,0,0,1,4.873-2.062h8.06V2.062A2.08,2.08,0,0,0,303.377,0a2.056,2.056,0,0,0-2.062,2.062V13.2h-3.861a10.714,10.714,0,0,0-7.572,3,10.131,10.131,0,0,0-3.224,7.91,10.432,10.432,0,0,0,3.6,7.61,10.667,10.667,0,0,0,6.3,2.624h7.572a2,2,0,0,0,2.062-2.1A2.073,2.073,0,0,0,304.127,30.214Z" transform="translate(-179.169)"/>
      <path id="Path_81" data-name="Path 81" class="cls-1" d="M199.888,38.449A10.609,10.609,0,0,0,192.84,35.6h-8.922a2.01,2.01,0,0,0-2.062,2.062,2.056,2.056,0,0,0,2.062,2.062h9a6.367,6.367,0,0,1,5.848,7.8,6.764,6.764,0,0,1-2.662,3.786,6.249,6.249,0,0,1-3.149,1.05h-5.96a2.088,2.088,0,0,1-1.837-2.961,2.189,2.189,0,0,1,1.987-1.275h7.61a2.008,2.008,0,0,0,2.062-2.137,2.1,2.1,0,0,0-2.062-2.137h-7.76a6.376,6.376,0,0,0-3.786,1.237,6.442,6.442,0,0,0-2.437,3.749,6.567,6.567,0,0,0,.825,4.761,6.473,6.473,0,0,0,4.648,2.924,1.538,1.538,0,0,0,.412.037H193.1a10.206,10.206,0,0,0,6.485-2.662,10.449,10.449,0,0,0,.3-15.444Z" transform="translate(-112.904 -22.255)"/>
      <path id="Path_82" data-name="Path 82" class="cls-1" d="M58.434,44.034h-7.61a2.008,2.008,0,0,0-2.062,2.137,2.1,2.1,0,0,0,2.062,2.137h7.76a6.376,6.376,0,0,0,3.786-1.237,6.442,6.442,0,0,0,2.437-3.749,6.567,6.567,0,0,0-.825-4.761,6.473,6.473,0,0,0-4.648-2.924,1.538,1.538,0,0,0-.412-.037H52.436a10.206,10.206,0,0,0-6.485,2.662,10.533,10.533,0,0,0-3.561,7.685,10.72,10.72,0,0,0,3.3,7.872,10.609,10.609,0,0,0,7.047,2.849h8.922a2.01,2.01,0,0,0,2.062-2.062,2.056,2.056,0,0,0-2.062-2.062h-9a6.367,6.367,0,0,1-5.848-7.8,6.764,6.764,0,0,1,2.662-3.786,6.249,6.249,0,0,1,3.149-1.05h5.96a2.088,2.088,0,0,1,1.837,2.961A2.408,2.408,0,0,1,58.434,44.034Z" transform="translate(-26.48 -22.255)"/>
      <path id="Path_83" data-name="Path 83" class="cls-1" d="M362.643,48.97a6.527,6.527,0,0,0-2.437-3.749,6.317,6.317,0,0,0-3.786-1.237h-8.734a2.048,2.048,0,0,1-1.874-1.162,2.174,2.174,0,0,1,.3-2.1,2.282,2.282,0,0,1,1.762-.825h11.171a2,2,0,0,0,2.062-2.1,2.088,2.088,0,0,0-2.062-2.1H347.236a6.355,6.355,0,0,0-2.661.787,6.656,6.656,0,0,0-2.437,2.174,6.456,6.456,0,0,0-.862,4.761,6.186,6.186,0,0,0,2.512,3.674,6.625,6.625,0,0,0,3.749,1.237h8.734a2.4,2.4,0,0,1,1.8,1.275,1.976,1.976,0,0,1-.15,2.1,2.19,2.19,0,0,1-1.5.75h-.75l-11.771.037a2.1,2.1,0,0,0-2.062,2.137,2.121,2.121,0,0,0,2.062,2.137h13.083a6.736,6.736,0,0,0,2.437-.75,6.293,6.293,0,0,0,2.4-2.212A6.54,6.54,0,0,0,362.643,48.97Z" transform="translate(-213.244 -22.317)"/>
      <path id="Path_84" data-name="Path 84" class="cls-1" d="M133.016,48.745V35.962a2.08,2.08,0,0,0-2.062-2.062,2.056,2.056,0,0,0-2.062,2.062V49.119a2.515,2.515,0,0,1-.825,1.837c-1.424,1.387-3.749.6-3.749.6a2.81,2.81,0,0,1-1.8-2.512V35.962a2.08,2.08,0,0,0-2.062-2.062,2.056,2.056,0,0,0-2.062,2.062v12.97a2.688,2.688,0,0,1-1.125,2.324,4.183,4.183,0,0,1-2.961.487,2.853,2.853,0,0,1-2.287-2.662V35.962a2.062,2.062,0,1,0-4.124,0v13.5a7.265,7.265,0,0,0,.525,2.4,7.117,7.117,0,0,0,3.561,3.524,8.9,8.9,0,0,0,5.7.262,6.725,6.725,0,0,0,2.774-1.649,8.147,8.147,0,0,0,2.137,1.424,8.586,8.586,0,0,0,5.436.3,7.038,7.038,0,0,0,3.9-2.811A6.819,6.819,0,0,0,133.016,48.745Z" transform="translate(-67.437 -21.192)"/>
      <path id="Path_85" data-name="Path 85" class="cls-1" d="M259.613,35.6H256.2a11.267,11.267,0,0,0-7.8,3.711,11.9,11.9,0,0,0-3.036,8.547V54.98a2.1,2.1,0,0,0,4.2,0V47.146a7.476,7.476,0,0,1,2.624-5.66,7.649,7.649,0,0,1,4.423-1.762h3.074a2,2,0,0,0,2.062-2.1A2.166,2.166,0,0,0,259.613,35.6Z" transform="translate(-153.362 -22.255)"/>
      <path id="Path_86" data-name="Path 86" class="cls-1" d="M14.257,35.6H10.846a11.267,11.267,0,0,0-7.8,3.711A11.957,11.957,0,0,0-.025,47.821v7.272a2.088,2.088,0,0,0,2.1,2.062,2.088,2.088,0,0,0,2.1-2.062V47.146A7.476,7.476,0,0,1,6.8,41.485a7.649,7.649,0,0,1,4.423-1.762h3.074a2,2,0,0,0,2.062-2.1A2.081,2.081,0,0,0,14.257,35.6Z" transform="translate(0.04 -22.255)"/>
      <path id="Path_87" data-name="Path 87" class="cls-2" d="M317.482,54.2v6.972h-8.022a3.459,3.459,0,0,1-2.362-.787,3.5,3.5,0,0,1-1.237-3.224,3.569,3.569,0,0,1,3.374-2.961h8.247Z" transform="translate(-191.175 -33.882)"/>
      <path id="Path_88" data-name="Path 88" class="cls-1" d="M479,42.746a10.007,10.007,0,0,0-2.924-4.536,10.34,10.34,0,0,0-5.323-2.587s-.525-.225-5.248-.15a14.993,14.993,0,0,0-3.674.262,11.233,11.233,0,0,0-4.611,2.362,11.747,11.747,0,0,0-2.662,3.6,11.564,11.564,0,0,0-.862,5.773,11.157,11.157,0,0,0,1.2,3.749,11.333,11.333,0,0,0,3.449,3.711,10.989,10.989,0,0,0,4.948,1.687s1.35.112,4.573.075a16.618,16.618,0,0,0,3.786-.375,9.825,9.825,0,0,0,4.461-2.437,10.75,10.75,0,0,0,3.036-4.986A10.106,10.106,0,0,0,479,42.746Zm-3.974,5.4a6.52,6.52,0,0,1-3.711,3.9,8.542,8.542,0,0,1-3.149.45H464.5a6.149,6.149,0,0,1-4.348-1.424,6.455,6.455,0,0,1-2.4-4.8,6.453,6.453,0,0,1,5.735-6.523c.112-.112,3.636-.075,3.636-.075,3.111,0,3.3.187,3.3.187a6.34,6.34,0,0,1,4.536,3.824A5.9,5.9,0,0,1,475.03,48.144Z" transform="translate(-283.572 -22.166)"/>
    </g>
  </g>
</svg>
